<?xml version="1.0" encoding="iso-8859-1"?>
<!-- Generator: Adobe Illustrator 16.0.0, SVG Export Plug-In . SVG Version: 6.00 Build 0)  -->
<!DOCTYPE svg PUBLIC "-//W3C//DTD SVG 1.1//EN" "http://www.w3.org/Graphics/SVG/1.1/DTD/svg11.dtd">
<svg version="1.1" id="Capa_1" xmlns="http://www.w3.org/2000/svg" xmlns:xlink="http://www.w3.org/1999/xlink" x="0px" y="0px"
	 width="128.602px" height="128.601px" viewBox="0 0 128.602 128.601" style="enable-background:new 0 0 128.602 128.601;"
	 xml:space="preserve">
<g>
	<g>
		<path d="M55.72,3.232H6.436C2.888,3.232,0,6.12,0,9.668v47.111c0,3.547,2.888,6.436,6.436,6.436H55.72
			c3.548,0,6.436-2.889,6.436-6.436V9.639C62.155,6.119,59.268,3.232,55.72,3.232z M49.312,37.499H36.468v12.844
			c0,2.97-2.393,5.362-5.363,5.362c-2.97,0-5.363-2.393-5.363-5.362V37.499H12.899c-2.97,0-5.363-2.393-5.363-5.363
			c0-2.97,2.393-5.363,5.363-5.363h12.844V16.074c0-2.97,2.393-5.362,5.363-5.362c2.97,0,5.363,2.393,5.363,5.362v10.698h12.844
			c2.97,0,5.363,2.394,5.363,5.363C54.675,35.107,52.255,37.499,49.312,37.499z"/>
		<path d="M122.139,3.232H72.881c-3.547,0-6.436,2.888-6.436,6.436v47.111c0,3.547,2.889,6.436,6.436,6.436h49.285
			c3.547,0,6.436-2.889,6.436-6.436V9.639C128.573,6.119,125.686,3.232,122.139,3.232z M115.702,37.059
			c-0.659,0.275-1.375,0.44-2.146,0.44H81.434c-0.771,0-1.484-0.165-2.146-0.44c-1.897-0.825-3.218-2.695-3.218-4.896
			c0-2.201,1.32-4.07,3.218-4.896c0.66-0.274,1.375-0.439,2.146-0.439h32.123c0.771,0,1.485,0.165,2.146,0.439
			c1.897,0.825,3.218,2.695,3.218,4.896C118.92,34.364,117.6,36.234,115.702,37.059z"/>
		<path d="M55.72,65.359H6.436C2.888,65.359,0,68.247,0,71.794v47.139c0,3.549,2.888,6.437,6.436,6.437H55.72
			c3.548,0,6.436-2.888,6.436-6.437V71.794C62.155,68.246,59.268,65.359,55.72,65.359z M49.312,112.113
			c-0.028,0.139-0.11,0.247-0.138,0.357c-0.33,0.853-0.88,1.649-1.65,2.254c-0.99,0.771-2.146,1.156-3.3,1.156
			c-1.595,0-3.163-0.688-4.208-2.035l-1.073-1.349l-7.398-9.378l-7.398,9.378l-1.073,1.349c-1.045,1.348-2.64,2.035-4.208,2.035
			c-1.155,0-2.338-0.386-3.3-1.156c-0.77-0.604-1.32-1.401-1.65-2.254c-0.688-1.705-0.467-3.713,0.743-5.28l10.038-12.761
			l-8.525-10.836c-1.238-1.597-1.43-3.658-0.688-5.392c0.33-0.798,0.853-1.54,1.595-2.118c2.338-1.842,5.693-1.43,7.536,0.881
			l0.963,1.237l5.968,7.591l5.968-7.591l0.962-1.237c1.843-2.311,5.198-2.723,7.536-0.881c0.743,0.578,1.265,1.32,1.595,2.118
			c0.743,1.731,0.55,3.795-0.688,5.392l-8.526,10.836l10.038,12.761c0.413,0.522,0.715,1.128,0.908,1.76
			C49.614,109.995,49.614,111.095,49.312,112.113z"/>
		<path d="M122.139,65.359H72.881c-3.547,0-6.436,2.888-6.436,6.436v47.139c0,3.549,2.889,6.437,6.436,6.437h49.285
			c3.547,0,6.436-2.888,6.436-6.437V71.794C128.573,68.246,125.686,65.359,122.139,65.359z M113.584,108.207H81.436
			c-0.771,0-1.485-0.164-2.146-0.439c-1.896-0.824-3.217-2.694-3.217-4.896c0-2.2,1.318-4.069,3.217-4.896
			c0.66-0.275,1.375-0.44,2.146-0.44h32.121c0.771,0,1.486,0.165,2.146,0.44c1.896,0.824,3.218,2.695,3.218,4.896
			c0,2.201-1.319,4.07-3.218,4.896C115.07,108.042,114.327,108.207,113.584,108.207z M115.702,92.751
			c-0.659,0.273-1.375,0.438-2.146,0.438H81.434c-0.771,0-1.484-0.164-2.146-0.438c-1.897-0.826-3.218-2.695-3.218-4.896
			s1.32-4.07,3.218-4.896c0.66-0.275,1.375-0.439,2.146-0.439h32.123c0.771,0,1.485,0.164,2.146,0.439
			c1.897,0.825,3.218,2.695,3.218,4.896S117.6,91.925,115.702,92.751z"/>
	</g>
</g>
<g>
</g>
<g>
</g>
<g>
</g>
<g>
</g>
<g>
</g>
<g>
</g>
<g>
</g>
<g>
</g>
<g>
</g>
<g>
</g>
<g>
</g>
<g>
</g>
<g>
</g>
<g>
</g>
<g>
</g>
</svg>
